<?xml version="1.0"?>
<svg xmlns="http://www.w3.org/2000/svg" viewBox="0 0 512 512" width="35" height="35">
<g id="Vector-2" data-name="Vector">
<path d="M496,288h-8.161a216.259,216.259,0,0,0-133.9-192h63.441a24,24,0,1,0,0-16H278.624a24,24,0,0,0-45.248,0H94.624a24,24,0,1,0,0,16h63.441a216.259,216.259,0,0,0-133.9,192H16a8,8,0,0,0-8,8v32a8,8,0,0,0,8,8H48a8,8,0,0,0,8-8V296a8,8,0,0,0-8-8H40.17A199.824,199.824,0,0,1,233.416,96.119a24,24,0,0,0,45.168,0A199.824,199.824,0,0,1,471.83,288H464a8,8,0,0,0-8,8v32a8,8,0,0,0,8,8h32a8,8,0,0,0,8-8V296A8,8,0,0,0,496,288ZM40,320H24V304H40ZM440,80a8,8,0,1,1-8,8A8.009,8.009,0,0,1,440,80ZM72,96a8,8,0,1,1,8-8A8.009,8.009,0,0,1,72,96Zm184,0a8,8,0,1,1,8-8A8.009,8.009,0,0,1,256,96ZM488,320H472V304h16Z"/>
<path d="M256,296a8,8,0,0,0,8-8v-8a8,8,0,0,0-16,0v8A8,8,0,0,0,256,296Z"/><path d="M312,360H297.789l13.866-45.676a8,8,0,0,0-.632-6.155l-48-88a8,8,0,0,0-14.046,0l-48,88a8,8,0,0,0-.669,6.029L213.394,360H200a8,8,0,0,0-8,8v40a8,8,0,0,0,8,8h8v48a8,8,0,0,0,8,8h80a8,8,0,0,0,8-8V416h8a8,8,0,0,0,8-8V368A8,8,0,0,0,312,360Zm-95.407-47.047L256,240.707l39.371,72.179L281.068,360H264V312a8,8,0,0,0-16,0v48H230.034ZM288,456H224V416h64Zm16-56H208V376h96Z"/>
</g>
</svg>
